:SAMPLES-PER-SECOND 30
:FULLY-SPECIFIED
:DEGREES
92
root  37.77 37.3197 -6.13081 35.2536 -81.4814 -35.7968
RightUpLeg  -23.3938 -3.16245 9.03387
RightLeg  27.3773 -2.02474 -1.3802
RightFoot  -4.22723 0.359595 -6.21212
RightToes  -1.16417e-010 0 -3.6325e-017
Spine  -3.04523 -0.682017 13.8108
Spine1  10.8176 0.107651 -2.14797
HEad  -12.1472 -1.76974 -2.53994
LeftShoulder1  -0.602417 5.03683 -33.1438
LeftArm  -3.27126 4.50055 -43.2051
LeftForeArm  41.8184 -6.84215 -9.24108
LeftHand  -0.319022 11.3148 -4.86538
RightShoulder  -1.11315 -6.44186 31.342
RightArm  10.9415 -9.94432 42.2976
RightForeArm  20.5103 7.1316 5.65303
RightHand  0.102997 2.25973 1.37984
LeftUpLeg  1.99976 4.03527 6.77119
LeftLeg  49.7075 -4.3186 -4.99389
LeftFoot  4.38887 1.6238 -11.8614
LeftToes  1.47335e-010 -1.29615e-010 3.08757e-011
93
root  36.696 37.3702 -6.08193 27.8539 -80.4589 -29.8781
RightUpLeg  -20.5866 -4.95664 8.62705
RightLeg  28.8438 -1.77241 -1.3125
RightFoot  -6.9989 0.179574 -5.99361
RightToes  -1.16417e-010 0 -3.6325e-017
Spine  -1.86135 -1.15333 14.0756
Spine1  11.5587 0.153945 -1.79113
HEad  -12.4401 -2.53963 -2.07299
LeftShoulder1  -0.618118 5.08494 -32.9328
LeftArm  -4.17908 6.40442 -42.224
LeftForeArm  43.608 -6.93923 -8.83745
LeftHand  -0.287474 10.3565 -5.1213
RightShoulder  -1.12519 -6.46712 31.4217
RightArm  11.7782 -9.06555 42.3281
RightForeArm  19.9702 8.32974 5.95801
RightHand  0.117728 2.27827 1.60562
LeftUpLeg  -1.30771 1.5251 6.61362
LeftLeg  56.5952 -3.0149 -4.43917
LeftFoot  8.47079 1.97606 -11.5565
LeftToes  1.47335e-010 -1.29615e-010 3.08757e-011
94
root  35.4979 37.6169 -6.06438 20.8015 -81.0892 -24.5091
RightUpLeg  -16.3583 -5.77774 7.42715
RightLeg  28.5391 -1.34842 -1.04102
RightFoot  -8.96774 0.0673223 -6.17473
RightToes  -1.16417e-010 0 -3.6325e-017
Spine  -0.919879 -0.898546 13.003
Spine1  12.3351 0.739201 -1.31043
HEad  -12.211 -3.01067 -2.25852
LeftShoulder1  -0.662991 5.18324 -33.3196
LeftArm  -4.14808 8.30983 -40.8096
LeftForeArm  42.2739 -7.81689 -8.5911
LeftHand  -0.327974 11.0235 -5.28877
RightShoulder  -1.06272 -6.34112 30.907
RightArm  12.7095 -7.28942 43.0445
RightForeArm  19.8163 8.80987 6.30953
RightHand  0.0680257 2.69321 0.756964
LeftUpLeg  -3.36188 0.682604 5.78925
LeftLeg  60.6042 -2.47845 -4.20761
LeftFoot  5.36069 1.46644 -10.1976
LeftToes  1.47335e-010 -1.29615e-010 3.08757e-011
95
root  34.3101 37.8723 -6.05775 13.0853 -81.718 -17.9053
RightUpLeg  -12.4758 -6.51744 6.07964
RightLeg  27.6787 -0.62445 -0.544834
RightFoot  -10.5776 -0.0285165 -6.32629
RightToes  -1.16417e-010 0 -3.6325e-017
Spine  -0.360731 -0.611575 12.3287
Spine1  12.426 1.47446 -1.8135
HEad  -11.4096 -3.41479 -2.28136
LeftShoulder1  -0.642432 5.14013 -33.1044
LeftArm  -2.84274 10.6148 -39.3
LeftForeArm  38.1799 -9.31601 -8.51777
LeftHand  -0.241837 11.2432 -3.39609
RightShoulder  -1.06345 -6.32612 31.1225
RightArm  14.1196 -5.44098 43.2693
RightForeArm  19.1093 9.72242 6.62216
RightHand  0.0742953 3.34566 0.754273
LeftUpLeg  -5.85679 -0.560201 4.57809
LeftLeg  62.1135 -2.08662 -3.70206
LeftFoot  4.13636 1.12104 -8.43057
LeftToes  1.47335e-010 -1.29615e-010 3.08757e-011
96
root  33.1711 38.0944 -6.02869 4.64419 -82.9081 -10.2167
RightUpLeg  -8.97718 -6.58656 4.56474
RightLeg  26.5873 0.283316 -0.0231156
RightFoot  -12.0009 -0.118186 -6.31899
RightToes  -1.16417e-010 0 -3.6325e-017
Spine  0.104364 0.0522955 11.7185
Spine1  12.3321 2.47783 -2.48161
HEad  -11.0626 -3.80024 -2.61292
LeftShoulder1  -0.627755 5.11908 -32.7089
LeftArm  -0.796457 12.5781 -38.5232
LeftForeArm  34.0792 -11.2753 -8.23399
LeftHand  -0.176861 10.7666 -2.44538
RightShoulder  -1.03116 -6.2862 30.5076
RightArm  15.1883 -3.89564 44.2619
RightForeArm  17.5939 11.3208 6.5201
RightHand  0.024765 3.20707 0.104401
LeftUpLeg  -8.32787 -1.48439 3.0881
LeftLeg  61.4153 -1.77444 -2.96263
LeftFoot  2.47286 0.824727 -6.9095
LeftToes  1.47335e-010 -1.29615e-010 3.08757e-011
